<?xml version="1.0" encoding="UTF-8"?>
<!DOCTYPE svg PUBLIC "-//W3C//DTD SVG 1.1//EN" "http://www.w3.org/Graphics/SVG/1.1/DTD/svg11.dtd">
<svg xmlns="http://www.w3.org/2000/svg" version="1.1" width="291px" height="275px" style="shape-rendering:geometricPrecision; text-rendering:geometricPrecision; image-rendering:optimizeQuality; fill-rule:evenodd; clip-rule:evenodd" xmlns:xlink="http://www.w3.org/1999/xlink">
<g><path style="opacity:1" fill="#fefefe" d="M -0.5,-0.5 C 42.1667,-0.5 84.8333,-0.5 127.5,-0.5C 126.5,0.166667 125.5,0.833333 124.5,1.5C 112.162,7.16754 106.162,16.8342 106.5,30.5C 106.332,34.6575 106.998,38.6575 108.5,42.5C 111.113,48.113 115.113,52.4463 120.5,55.5C 124.486,58.8153 129.152,60.4819 134.5,60.5C 154.862,60.6618 166.196,50.6618 168.5,30.5C 168.633,23.6604 166.633,17.6604 162.5,12.5C 160.906,9.2358 158.573,6.56913 155.5,4.5C 152.629,2.56546 149.629,0.898792 146.5,-0.5C 194.5,-0.5 242.5,-0.5 290.5,-0.5C 290.5,91.1667 290.5,182.833 290.5,274.5C 193.5,274.5 96.5,274.5 -0.5,274.5C -0.5,255.833 -0.5,237.167 -0.5,218.5C 0.956718,222.178 2.62338,225.845 4.5,229.5C 7.44534,234.806 11.7787,238.473 17.5,240.5C 21.6932,243.09 26.3599,244.09 31.5,243.5C 46.693,242.816 56.5263,235.15 61,220.5C 61.6667,215.167 61.6667,209.833 61,204.5C 60.7679,203.263 60.2679,202.263 59.5,201.5C 57.9429,196.294 54.9429,192.294 50.5,189.5C 48.9286,186.769 46.5952,184.935 43.5,184C 40.176,183.057 36.8426,182.224 33.5,181.5C 28.6331,181.118 23.9665,181.785 19.5,183.5C 9.15004,187.85 2.81671,195.517 0.5,206.5C 0.166667,206.5 -0.166667,206.5 -0.5,206.5C -0.5,137.5 -0.5,68.5 -0.5,-0.5 Z"/></g>
<g><path style="opacity:1" fill="#70b346" d="M 144.5,-0.5 C 145.167,-0.5 145.833,-0.5 146.5,-0.5C 149.629,0.898792 152.629,2.56546 155.5,4.5C 152.695,6.79219 150.362,9.45886 148.5,12.5C 144.55,10.1209 140.216,9.12094 135.5,9.5C 139.804,7.52035 142.804,4.18702 144.5,-0.5 Z"/></g>
<g><path style="opacity:1" fill="#fdfdfc" d="M 135.5,9.5 C 140.216,9.12094 144.55,10.1209 148.5,12.5C 152.375,15.2337 155.041,18.9003 156.5,23.5C 159.22,37.7192 153.553,46.7192 139.5,50.5C 133.816,50.8219 128.816,49.1552 124.5,45.5C 119.563,41.6722 116.896,36.6722 116.5,30.5C 116.775,21.7953 120.775,15.2953 128.5,11C 130.74,10.023 133.073,9.52304 135.5,9.5 Z"/></g>
<g><path style="opacity:1" fill="#56a950" d="M 155.5,4.5 C 158.573,6.56913 160.906,9.2358 162.5,12.5C 163.328,17.8519 161.328,21.5185 156.5,23.5C 155.041,18.9003 152.375,15.2337 148.5,12.5C 150.362,9.45886 152.695,6.79219 155.5,4.5 Z"/></g>
<g><path style="opacity:1" fill="#a6c726" d="M 124.5,1.5 C 125.239,1.36899 125.906,1.53566 126.5,2C 119.581,11.4029 112.914,20.9029 106.5,30.5C 106.162,16.8342 112.162,7.16754 124.5,1.5 Z"/></g>
<g><path style="opacity:1" fill="#92bf2d" d="M 127.5,-0.5 C 133.167,-0.5 138.833,-0.5 144.5,-0.5C 142.804,4.18702 139.804,7.52035 135.5,9.5C 133.073,9.52304 130.74,10.023 128.5,11C 120.775,15.2953 116.775,21.7953 116.5,30.5C 116.628,32.6547 116.128,34.6547 115,36.5C 113.341,37.8168 112.174,39.4835 111.5,41.5C 110.675,42.3857 109.675,42.719 108.5,42.5C 106.998,38.6575 106.332,34.6575 106.5,30.5C 112.914,20.9029 119.581,11.4029 126.5,2C 125.906,1.53566 125.239,1.36899 124.5,1.5C 125.5,0.833333 126.5,0.166667 127.5,-0.5 Z"/></g>
<g><path style="opacity:1" fill="#40a15d" d="M 162.5,12.5 C 166.633,17.6604 168.633,23.6604 168.5,30.5C 166.196,50.6618 154.862,60.6618 134.5,60.5C 136.713,57.4078 138.379,54.0744 139.5,50.5C 153.553,46.7192 159.22,37.7192 156.5,23.5C 161.328,21.5185 163.328,17.8519 162.5,12.5 Z"/></g>
<g><path style="opacity:1" fill="#71b341" d="M 116.5,30.5 C 116.896,36.6722 119.563,41.6722 124.5,45.5C 124.539,46.5832 124.873,47.5832 125.5,48.5C 124.164,51.1537 122.497,53.487 120.5,55.5C 115.113,52.4463 111.113,48.113 108.5,42.5C 109.675,42.719 110.675,42.3857 111.5,41.5C 112.174,39.4835 113.341,37.8168 115,36.5C 116.128,34.6547 116.628,32.6547 116.5,30.5 Z"/></g>
<g><path style="opacity:1" fill="#5aab4e" d="M 124.5,45.5 C 128.816,49.1552 133.816,50.8219 139.5,50.5C 138.379,54.0744 136.713,57.4078 134.5,60.5C 129.152,60.4819 124.486,58.8153 120.5,55.5C 122.497,53.487 124.164,51.1537 125.5,48.5C 124.873,47.5832 124.539,46.5832 124.5,45.5 Z"/></g>
<g><path style="opacity:1" fill="#88bc33" d="M 149.5,67.5 C 147.791,71.5324 145.124,74.5324 141.5,76.5C 131.811,75.175 123.477,77.8417 116.5,84.5C 120.249,79.2015 123.916,73.7015 127.5,68C 126.906,67.5357 126.239,67.369 125.5,67.5C 133.359,64.9658 141.359,64.9658 149.5,67.5 Z"/></g>
<g><path style="opacity:1" fill="#96c12f" d="M 125.5,67.5 C 126.239,67.369 126.906,67.5357 127.5,68C 123.916,73.7015 120.249,79.2015 116.5,84.5C 109.183,91.1555 103.849,99.1555 100.5,108.5C 86.6429,126.498 73.4763,145.164 61,164.5C 59.6152,165.551 58.6152,166.884 58,168.5C 57.6012,168.272 57.4346,167.938 57.5,167.5C 61.1713,149.495 70.0046,134.495 84,122.5C 88.2461,103.164 97.7461,86.9977 112.5,74C 116.619,71.2739 120.952,69.1072 125.5,67.5 Z"/></g>
<g><path style="opacity:1" fill="#fdfdfb" d="M 141.5,76.5 C 146.106,77.4321 150.439,79.2655 154.5,82C 159.037,86.3688 163.37,90.8688 167.5,95.5C 169.92,99.6623 171.753,103.996 173,108.5C 170.386,106.444 167.553,104.777 164.5,103.5C 155.646,98.2584 145.98,95.925 135.5,96.5C 126.201,95.9041 117.867,98.2375 110.5,103.5C 106.883,104.642 103.55,106.308 100.5,108.5C 103.849,99.1555 109.183,91.1555 116.5,84.5C 123.477,77.8417 131.811,75.175 141.5,76.5 Z"/></g>
<g><path style="opacity:1" fill="#71b344" d="M 149.5,67.5 C 158.938,71.2748 166.604,77.2748 172.5,85.5C 171.047,86.8249 171.381,87.6582 173.5,88C 172.833,88.3333 172.167,88.6667 171.5,89C 175.127,90.2211 175.127,91.8878 171.5,94C 171.833,94.3333 172.167,94.6667 172.5,95C 170.619,94.904 168.953,95.0707 167.5,95.5C 163.37,90.8688 159.037,86.3688 154.5,82C 150.439,79.2655 146.106,77.4321 141.5,76.5C 145.124,74.5324 147.791,71.5324 149.5,67.5 Z"/></g>
<g><path style="opacity:1" fill="#61ad4d" d="M 172.5,85.5 C 174.451,86.7158 175.951,88.3825 177,90.5C 179.801,95.7653 182.301,101.099 184.5,106.5C 182.621,106.393 182.288,106.893 183.5,108C 182.019,108.98 180.685,110.147 179.5,111.5C 178.359,112.425 178.359,113.259 179.5,114C 176.071,116.358 173.738,119.524 172.5,123.5C 167.746,118.409 162.413,114.076 156.5,110.5C 157.496,110.586 158.329,110.252 159,109.5C 159.333,110.167 159.667,110.833 160,111.5C 161.356,108.671 162.856,106.004 164.5,103.5C 167.553,104.777 170.386,106.444 173,108.5C 171.753,103.996 169.92,99.6623 167.5,95.5C 168.953,95.0707 170.619,94.904 172.5,95C 172.167,94.6667 171.833,94.3333 171.5,94C 175.127,91.8878 175.127,90.2211 171.5,89C 172.167,88.6667 172.833,88.3333 173.5,88C 171.381,87.6582 171.047,86.8249 172.5,85.5 Z"/></g>
<g><path style="opacity:1" fill="#6db242" d="M 135.5,96.5 C 145.98,95.925 155.646,98.2584 164.5,103.5C 162.856,106.004 161.356,108.671 160,111.5C 159.667,110.833 159.333,110.167 159,109.5C 158.329,110.252 157.496,110.586 156.5,110.5C 148.085,107.653 139.418,106.32 130.5,106.5C 132.571,103.412 134.238,100.079 135.5,96.5 Z"/></g>
<g><path style="opacity:1" fill="#8bbd32" d="M 110.5,103.5 C 111.354,105.926 110.354,107.759 107.5,109C 108.167,109.333 108.833,109.667 109.5,110C 108.167,110.333 106.833,110.667 105.5,111C 106.167,111.333 106.833,111.667 107.5,112C 106.019,112.98 104.685,114.147 103.5,115.5C 102.359,116.425 102.359,117.259 103.5,118C 102.5,118.333 101.5,118.667 100.5,119C 100.833,119.333 101.167,119.667 101.5,120C 100.167,121 98.8333,122 97.5,123C 98.1667,123.333 98.8333,123.667 99.5,124C 97.5,125.667 95.5,127.333 93.5,129C 94.1667,129.333 94.8333,129.667 95.5,130C 94.1667,130.333 92.8333,130.667 91.5,131C 92.1667,131.333 92.8333,131.667 93.5,132C 89.0818,135.204 85.0818,138.704 81.5,142.5C 80.6726,141.561 80.0059,141.895 79.5,143.5C 74.92,149.585 71.42,156.252 69,163.5C 67.8119,169.778 67.3119,176.112 67.5,182.5C 67.1807,187.788 64.8474,191.788 60.5,194.5C 56.7173,185.681 55.7173,176.681 57.5,167.5C 57.4346,167.938 57.6012,168.272 58,168.5C 58.6152,166.884 59.6152,165.551 61,164.5C 73.4763,145.164 86.6429,126.498 100.5,108.5C 103.55,106.308 106.883,104.642 110.5,103.5 Z"/></g>
<g><path style="opacity:1" fill="#fefefe" d="M 130.5,106.5 C 139.418,106.32 148.085,107.653 156.5,110.5C 162.413,114.076 167.746,118.409 172.5,123.5C 180.322,133.776 183.656,145.442 182.5,158.5C 180.829,165.859 177.996,172.859 174,179.5C 169.189,185.158 163.689,189.824 157.5,193.5C 149.568,197.033 141.235,198.366 132.5,197.5C 125.705,196.934 119.372,194.934 113.5,191.5C 101.411,183.652 94.0778,172.652 91.5,158.5C 90.9511,130.907 103.951,113.574 130.5,106.5 Z"/></g>
<g><path style="opacity:1" fill="#84ba37" d="M 135.5,96.5 C 134.238,100.079 132.571,103.412 130.5,106.5C 103.951,113.574 90.9511,130.907 91.5,158.5C 90.7167,163.399 88.3833,167.399 84.5,170.5C 82.8993,167.45 81.8993,164.116 81.5,160.5C 81.5,154.5 81.5,148.5 81.5,142.5C 85.0818,138.704 89.0818,135.204 93.5,132C 92.8333,131.667 92.1667,131.333 91.5,131C 92.8333,130.667 94.1667,130.333 95.5,130C 94.8333,129.667 94.1667,129.333 93.5,129C 95.5,127.333 97.5,125.667 99.5,124C 98.8333,123.667 98.1667,123.333 97.5,123C 98.8333,122 100.167,121 101.5,120C 101.167,119.667 100.833,119.333 100.5,119C 101.5,118.667 102.5,118.333 103.5,118C 102.359,117.259 102.359,116.425 103.5,115.5C 104.685,114.147 106.019,112.98 107.5,112C 106.833,111.667 106.167,111.333 105.5,111C 106.833,110.667 108.167,110.333 109.5,110C 108.833,109.667 108.167,109.333 107.5,109C 110.354,107.759 111.354,105.926 110.5,103.5C 117.867,98.2375 126.201,95.9041 135.5,96.5 Z"/></g>
<g><path style="opacity:1" fill="#4ca554" d="M 184.5,106.5 C 186.821,111.629 188.655,116.962 190,122.5C 193.294,125.109 196.127,128.109 198.5,131.5C 197.276,134.519 195.443,137.519 193,140.5C 192.821,143.553 192.321,146.553 191.5,149.5C 190.646,150.522 189.646,151.355 188.5,152C 188.833,152.333 189.167,152.667 189.5,153C 186.456,153.359 186.122,154.026 188.5,155C 187.167,156 185.833,157 184.5,158C 184.833,158.333 185.167,158.667 185.5,159C 184.251,159.74 183.251,159.573 182.5,158.5C 183.656,145.442 180.322,133.776 172.5,123.5C 173.738,119.524 176.071,116.358 179.5,114C 178.359,113.259 178.359,112.425 179.5,111.5C 180.685,110.147 182.019,108.98 183.5,108C 182.288,106.893 182.621,106.393 184.5,106.5 Z"/></g>
<g><path style="opacity:1" fill="#fcfdfb" d="M 79.5,143.5 C 80.1667,149.167 80.8333,154.833 81.5,160.5C 81.8993,164.116 82.8993,167.45 84.5,170.5C 88.099,183.428 95.7657,193.095 107.5,199.5C 110.598,201.892 113.931,204.058 117.5,206C 109.427,208.104 101.427,207.937 93.5,205.5C 80.1517,202.868 71.485,195.201 67.5,182.5C 67.3119,176.112 67.8119,169.778 69,163.5C 71.42,156.252 74.92,149.585 79.5,143.5 Z"/></g>
<g><path style="opacity:1" fill="#fbfdfb" d="M 203.5,157.5 C 212.215,182.401 204.215,198.735 179.5,206.5C 171.777,207.917 164.11,207.75 156.5,206C 183.121,193.338 195.621,172.172 194,142.5C 197.634,147.295 200.801,152.295 203.5,157.5 Z"/></g>
<g><path style="opacity:1" fill="#c3dd98" d="M 81.5,142.5 C 81.5,148.5 81.5,154.5 81.5,160.5C 80.8333,154.833 80.1667,149.167 79.5,143.5C 80.0059,141.895 80.6726,141.561 81.5,142.5 Z"/></g>
<g><path style="opacity:1" fill="#339b68" d="M 210.5,148.5 C 219.155,164.589 219.655,180.923 212,197.5C 201.958,210.105 188.792,216.771 172.5,217.5C 175.28,213.537 177.613,209.871 179.5,206.5C 204.215,198.735 212.215,182.401 203.5,157.5C 203.826,155.339 204.826,153.506 206.5,152C 206.167,151.667 205.833,151.333 205.5,151C 206.9,149.562 208.567,148.729 210.5,148.5 Z"/></g>
<g><path style="opacity:1" fill="#43a25e" d="M 198.5,131.5 C 203.245,136.589 207.245,142.255 210.5,148.5C 208.567,148.729 206.9,149.562 205.5,151C 205.833,151.333 206.167,151.667 206.5,152C 204.826,153.506 203.826,155.339 203.5,157.5C 200.801,152.295 197.634,147.295 194,142.5C 195.621,172.172 183.121,193.338 156.5,206C 164.11,207.75 171.777,207.917 179.5,206.5C 177.613,209.871 175.28,213.537 172.5,217.5C 165.825,217.666 159.158,217.5 152.5,217C 149.322,216.34 146.322,215.507 143.5,214.5C 145.179,214.108 146.846,213.608 148.5,213C 146.122,212.026 146.456,211.359 149.5,211C 149.167,210.667 148.833,210.333 148.5,210C 149.833,209 151.167,208 152.5,207C 151.833,206.667 151.167,206.333 150.5,206C 153.167,203.667 155.833,201.333 158.5,199C 157.833,198.667 157.167,198.333 156.5,198C 160.503,196.249 160.836,194.749 157.5,193.5C 163.689,189.824 169.189,185.158 174,179.5C 177.996,172.859 180.829,165.859 182.5,158.5C 183.251,159.573 184.251,159.74 185.5,159C 185.167,158.667 184.833,158.333 184.5,158C 185.833,157 187.167,156 188.5,155C 186.122,154.026 186.456,153.359 189.5,153C 189.167,152.667 188.833,152.333 188.5,152C 189.646,151.355 190.646,150.522 191.5,149.5C 192.321,146.553 192.821,143.553 193,140.5C 195.443,137.519 197.276,134.519 198.5,131.5 Z"/></g>
<g><path style="opacity:1" fill="#91bf32" d="M 245.5,181.5 C 246.091,182.151 246.757,182.818 247.5,183.5C 245.376,186.279 243.709,189.279 242.5,192.5C 232.521,193.478 226.187,198.811 223.5,208.5C 222.681,211.305 222.181,214.305 222,217.5C 220.333,220.167 218.667,222.833 217,225.5C 216.329,224.748 215.496,224.414 214.5,224.5C 213.545,222.254 212.878,219.921 212.5,217.5C 213.643,217.092 214.643,216.425 215.5,215.5C 221.5,206.167 227.5,196.833 233.5,187.5C 233.121,185.787 232.121,184.787 230.5,184.5C 235.073,181.982 240.073,180.982 245.5,181.5 Z"/></g>
<g><path style="opacity:1" fill="#6eb245" d="M 33.5,181.5 C 36.8426,182.224 40.176,183.057 43.5,184C 46.5952,184.935 48.9286,186.769 50.5,189.5C 48.4884,192.205 46.4884,194.872 44.5,197.5C 40.2176,193.867 35.2176,192.201 29.5,192.5C 30.8539,188.968 32.8539,185.802 35.5,183C 34.5842,182.722 33.9175,182.222 33.5,181.5 Z"/></g>
<g><path style="opacity:1" fill="#70b343" d="M 245.5,181.5 C 249.222,182.017 252.888,182.85 256.5,184C 257.942,184.377 258.942,185.21 259.5,186.5C 259.312,190.67 257.312,193.337 253.5,194.5C 250.081,192.913 246.415,192.247 242.5,192.5C 243.709,189.279 245.376,186.279 247.5,183.5C 246.757,182.818 246.091,182.151 245.5,181.5 Z"/></g>
<g><path style="opacity:1" fill="#6bb147" d="M 91.5,158.5 C 94.0778,172.652 101.411,183.652 113.5,191.5C 112.238,194.757 110.238,197.423 107.5,199.5C 95.7657,193.095 88.099,183.428 84.5,170.5C 88.3833,167.399 90.7167,163.399 91.5,158.5 Z"/></g>
<g><path style="opacity:1" fill="#fcfdfc" d="M 29.5,192.5 C 35.2176,192.201 40.2176,193.867 44.5,197.5C 49.59,202.359 51.9233,208.359 51.5,215.5C 49.6333,224.028 44.6333,229.695 36.5,232.5C 31.7143,233.925 27.0477,233.592 22.5,231.5C 17.8058,228.806 14.1391,225.139 11.5,220.5C 8.15929,209.695 11.1593,201.195 20.5,195C 23.1706,193.097 26.1706,192.264 29.5,192.5 Z"/></g>
<g><path style="opacity:1" fill="#a3c626" d="M 230.5,184.5 C 232.121,184.787 233.121,185.787 233.5,187.5C 227.5,196.833 221.5,206.167 215.5,215.5C 214.643,216.425 213.643,217.092 212.5,217.5C 210.979,202.196 216.979,191.196 230.5,184.5 Z"/></g>
<g><path style="opacity:1" fill="#fdfefd" d="M 242.5,192.5 C 246.415,192.247 250.081,192.913 253.5,194.5C 257.598,197.265 260.598,200.932 262.5,205.5C 265.423,217.988 261.09,226.988 249.5,232.5C 240.723,234.286 233.39,231.953 227.5,225.5C 224.015,220.426 222.682,214.76 223.5,208.5C 226.187,198.811 232.521,193.478 242.5,192.5 Z"/></g>
<g><path style="opacity:1" fill="#57a94f" d="M 259.5,186.5 C 264.157,188.456 267.49,191.79 269.5,196.5C 268.342,200.515 266.009,203.515 262.5,205.5C 260.598,200.932 257.598,197.265 253.5,194.5C 257.312,193.337 259.312,190.67 259.5,186.5 Z"/></g>
<g><path style="opacity:1" fill="#a5c725" d="M 19.5,183.5 C 14.0242,193.834 7.85756,203.834 1,213.5C 0.503354,211.19 0.336688,208.857 0.5,206.5C 2.81671,195.517 9.15004,187.85 19.5,183.5 Z"/></g>
<g><path style="opacity:1" fill="#57a94e" d="M 113.5,191.5 C 119.372,194.934 125.705,196.934 132.5,197.5C 135.358,198.166 138.358,198.833 141.5,199.5C 138.166,203.958 134.833,208.958 131.5,214.5C 116.376,218.482 101.376,218.482 86.5,214.5C 87.2389,214.631 87.9056,214.464 88.5,214C 90.155,211.347 92.155,209.014 94.5,207C 93.944,206.617 93.6107,206.117 93.5,205.5C 101.427,207.937 109.427,208.104 117.5,206C 113.931,204.058 110.598,201.892 107.5,199.5C 110.238,197.423 112.238,194.757 113.5,191.5 Z"/></g>
<g><path style="opacity:1" fill="#4aa457" d="M 157.5,193.5 C 160.836,194.749 160.503,196.249 156.5,198C 157.167,198.333 157.833,198.667 158.5,199C 155.833,201.333 153.167,203.667 150.5,206C 151.167,206.333 151.833,206.667 152.5,207C 151.167,208 149.833,209 148.5,210C 148.833,210.333 149.167,210.667 149.5,211C 146.456,211.359 146.122,212.026 148.5,213C 146.846,213.608 145.179,214.108 143.5,214.5C 139.472,213.38 135.472,213.38 131.5,214.5C 134.833,208.958 138.166,203.958 141.5,199.5C 138.358,198.833 135.358,198.166 132.5,197.5C 141.235,198.366 149.568,197.033 157.5,193.5 Z"/></g>
<g><path style="opacity:1" fill="#4fa653" d="M 50.5,189.5 C 54.9429,192.294 57.9429,196.294 59.5,201.5C 58.0783,206.406 55.4117,211.073 51.5,215.5C 51.9233,208.359 49.59,202.359 44.5,197.5C 46.4884,194.872 48.4884,192.205 50.5,189.5 Z"/></g>
<g><path style="opacity:1" fill="#91bf30" d="M 33.5,181.5 C 33.9175,182.222 34.5842,182.722 35.5,183C 32.8539,185.802 30.8539,188.968 29.5,192.5C 26.1706,192.264 23.1706,193.097 20.5,195C 11.1593,201.195 8.15929,209.695 11.5,220.5C 11.312,225.225 8.97864,228.225 4.5,229.5C 2.62338,225.845 0.956718,222.178 -0.5,218.5C -0.5,214.5 -0.5,210.5 -0.5,206.5C -0.166667,206.5 0.166667,206.5 0.5,206.5C 0.336688,208.857 0.503354,211.19 1,213.5C 7.85756,203.834 14.0242,193.834 19.5,183.5C 23.9665,181.785 28.6331,181.118 33.5,181.5 Z"/></g>
<g><path style="opacity:1" fill="#70b344" d="M 67.5,182.5 C 71.485,195.201 80.1517,202.868 93.5,205.5C 93.6107,206.117 93.944,206.617 94.5,207C 92.155,209.014 90.155,211.347 88.5,214C 87.9056,214.464 87.2389,214.631 86.5,214.5C 75.1915,211.189 66.5249,204.522 60.5,194.5C 64.8474,191.788 67.1807,187.788 67.5,182.5 Z"/></g>
<g><path style="opacity:1" fill="#3fa05f" d="M 59.5,201.5 C 60.2679,202.263 60.7679,203.263 61,204.5C 61.6667,209.833 61.6667,215.167 61,220.5C 56.5263,235.15 46.693,242.816 31.5,243.5C 32.635,242.526 33.635,241.359 34.5,240C 34.1667,239.667 33.8333,239.333 33.5,239C 35.9848,237.437 37.6515,235.77 38.5,234C 37.9558,233.283 37.2891,232.783 36.5,232.5C 44.6333,229.695 49.6333,224.028 51.5,215.5C 55.4117,211.073 58.0783,206.406 59.5,201.5 Z"/></g>
<g><path style="opacity:1" fill="#40a05e" d="M 269.5,196.5 C 275.981,207.237 276.147,218.237 270,229.5C 263.646,238.761 254.813,243.428 243.5,243.5C 246.658,240.286 248.991,236.952 250.5,233.5C 250.376,232.893 250.043,232.56 249.5,232.5C 261.09,226.988 265.423,217.988 262.5,205.5C 266.009,203.515 268.342,200.515 269.5,196.5 Z"/></g>
<g><path style="opacity:1" fill="#7cb842" d="M 223.5,208.5 C 222.682,214.76 224.015,220.426 227.5,225.5C 227.539,226.583 227.873,227.583 228.5,228.5C 227.081,230.336 225.914,232.336 225,234.5C 224.329,235.252 223.496,235.586 222.5,235.5C 219.092,232.417 216.425,228.751 214.5,224.5C 215.496,224.414 216.329,224.748 217,225.5C 218.667,222.833 220.333,220.167 222,217.5C 222.181,214.305 222.681,211.305 223.5,208.5 Z"/></g>
<g><path style="opacity:1" fill="#6db248" d="M 11.5,220.5 C 14.1391,225.139 17.8058,228.806 22.5,231.5C 20.5675,234.366 18.9009,237.366 17.5,240.5C 11.7787,238.473 7.44534,234.806 4.5,229.5C 8.97864,228.225 11.312,225.225 11.5,220.5 Z"/></g>
<g><path style="opacity:1" fill="#56a950" d="M 22.5,231.5 C 27.0477,233.592 31.7143,233.925 36.5,232.5C 37.2891,232.783 37.9558,233.283 38.5,234C 37.6515,235.77 35.9848,237.437 33.5,239C 33.8333,239.333 34.1667,239.667 34.5,240C 33.635,241.359 32.635,242.526 31.5,243.5C 26.3599,244.09 21.6932,243.09 17.5,240.5C 18.9009,237.366 20.5675,234.366 22.5,231.5 Z"/></g>
<g><path style="opacity:1" fill="#5dac51" d="M 227.5,225.5 C 233.39,231.953 240.723,234.286 249.5,232.5C 250.043,232.56 250.376,232.893 250.5,233.5C 248.991,236.952 246.658,240.286 243.5,243.5C 235.015,244.344 228.015,241.677 222.5,235.5C 223.496,235.586 224.329,235.252 225,234.5C 225.914,232.336 227.081,230.336 228.5,228.5C 227.873,227.583 227.539,226.583 227.5,225.5 Z"/></g>
</svg>
